<?xml version="1.0" standalone="no"?>
<!DOCTYPE svg PUBLIC "-//W3C//DTD SVG 20010904//EN"
 "http://www.w3.org/TR/2001/REC-SVG-20010904/DTD/svg10.dtd">
<svg version="1.0" xmlns="http://www.w3.org/2000/svg"
 width="100.000000pt" height="100.000000pt" viewBox="0 0 100.000000 100.000000"
 preserveAspectRatio="xMidYMid meet">

<g transform="translate(0.000000,100.000000) scale(0.100000,-0.100000)"
fill="url(#logoGradient)" stroke="none">
<defs>
  <linearGradient id="logoGradient" x1="0%" y1="100%" x2="100%" y2="0%">
    <stop offset="0%" stop-color="#FFD700"/>
    <stop offset="100%" stop-color="#1C7ABF"/>
  </linearGradient>
</defs>
<path d="M157 715 c-87 -92 -157 -170 -157 -174 0 -11 150 -181 159 -181 4 0
18 12 32 26 l24 26 5 -154 5 -153 275 0 275 0 3 154 c3 153 3 154 23 135 20
-18 21 -16 112 74 l92 92 -161 161 -161 161 -49 -17 c-96 -34 -165 -31 -300
10 -17 5 -47 -22 -177 -160z"/>
</g>
</svg>
